<svg xmlns="http://www.w3.org/2000/svg" viewBox="0 0 1200 520" role="img" xmlns:c2pa="http://c2pa.org/manifest"><metadata><c2pa:manifest>AAAWgmp1bWIAAAAeanVtZGMycGEAEQAQgAAAqgA4m3EDYzJwYQAAABZcanVtYgAAAEdqdW1kYzJtYQARABCAAACqADibcQN1cm46YzJwYTo5YTg0NjA4OC05ODk3LTQ4NTMtOGVkMi05ZWUxYWJiODMxOTkAAAADl2p1bWIAAAApanVtZGMyYXMAEQAQgAAAqgA4m3EDYzJwYS5hc3NlcnRpb25zAAAAALxqdW1iAAAARGp1bWRjYm9yABEAEIAAAKoAOJtxE2MycGEuaW5ncmVkaWVudC52MwAAAAAYYzJzaJSyOAdFNyySf/53kk9ltp4AAABwY2JvcqNpZGM6Zm9ybWF0bWltYWdlL3N2Zyt4bWxqaW5zdGFuY2VJRHgseG1wOmlpZDoyM2MwMTEzNy01NzM1LTRjYTItYjBkMy1mZjI4YjhjM2I2ZWZscmVsYXRpb25zaGlwaHBhcmVudE9mAAAB4mp1bWIAAABBanVtZGNib3IAEQAQgAAAqgA4m3ETYzJwYS5hY3Rpb25zLnYyAAAAABhjMnNo53v2jL4+hVVQlr3SnPb1VQAAAZljYm9yomdhY3Rpb25zgqJmYWN0aW9ua2MycGEub3BlbmVkanBhcmFtZXRlcnOha2luZ3JlZGllbnRzgaJjdXJseC1zZWxmI2p1bWJmPWMycGEuYXNzZXJ0aW9ucy9jMnBhLmluZ3JlZGllbnQudjNkaGFzaFggG5Vvk9xfCcpvQoyGVtqqBuAdZvi5BGMJpWkCo0LT6qakZmFjdGlvbngdY29tLmFudGhyb3BpYy5jbGF1ZGUucHJvdmlkZWRqcGFyYW1ldGVyc6F4H2NvbS5hbnRocm9waWMub3JpZ2luLWNvbmZpZGVuY2VndW5rbm93bmtkZXNjcmlwdGlvbnhmQ2xhdWRlIHByb3ZpZGVkIHRoaXMgZmlsZSBhdCB0aGUgcmVxdWVzdCBvZiBhIHVzZXIgYW5kIG1heSBoYXZlIGNyZWF0ZWQgb3IgbW9kaWZpZWQgdGhlIGZpbGUgY29udGVudHMubXNvZnR3YXJlQWdlbnShZG5hbWVmQ2xhdWRlcmFsbEFjdGlvbnNJbmNsdWRlZPUAAADIanVtYgAAAEBqdW1kY2JvcgARABCAAACqADibcRNjMnBhLmhhc2guZGF0YQAAAAAYYzJzaGQ5ALG7ciCBqlITNbE85wAAAACAY2JvcqVjYWxnZnNoYTI1NmNwYWRNAAAAAAAAAAAAAAAAAGRoYXNoWCASNdKmgjajMbhKEec734RHqNA+uPKFPHLgLijcLZjYa2RuYW1lbmp1bWJmIG1hbmlmZXN0amV4Y2x1c2lvbnOBomVzdGFydBiJZmxlbmd0aBkeBAAAAj5qdW1iAAAAJ2p1bWRjMmNsABEAEIAAAKoAOJtxA2MycGEuY2xhaW0udjIAAAACD2Nib3KlY2FsZ2ZzaGEyNTZpc2lnbmF0dXJleE1zZWxmI2p1bWJmPS9jMnBhL3VybjpjMnBhOjlhODQ2MDg4LTk4OTctNDg1My04ZWQyLTllZTFhYmI4MzE5OS9jMnBhLnNpZ25hdHVyZWppbnN0YW5jZUlEeCx4bXA6aWlkOjZmMDE0NDNmLTY5YWYtNDlhOS05OTNiLTY0NjI2YjBhMzY2NXJjcmVhdGVkX2Fzc2VydGlvbnODomN1cmx4LXNlbGYjanVtYmY9YzJwYS5hc3NlcnRpb25zL2MycGEuaW5ncmVkaWVudC52M2RoYXNoWCAblW+T3F8Jym9CjIZW2qoG4B1m+LkEYwmlaQKjQtPqpqJjdXJseCpzZWxmI2p1bWJmPWMycGEuYXNzZXJ0aW9ucy9jMnBhLmFjdGlvbnMudjJkaGFzaFggYKkB+8ds6bagUJ8rVZgriIEngV+jhZ3o3xQ+OO2RbM2iY3VybHgpc2VsZiNqdW1iZj1jMnBhLmFzc2VydGlvbnMvYzJwYS5oYXNoLmRhdGFkaGFzaFggsWv4HPLqupia7pw/l49BO3nXZ16J7vI/IXX7x51BSyp0Y2xhaW1fZ2VuZXJhdG9yX2luZm+jZG5hbWVvQW50aHJvcGljIEZpbGVzZ3ZlcnNpb25lMS4wLjBrc3BlY1ZlcnNpb25lMi40LjAAABA4anVtYgAAAChqdW1kYzJjcwARABCAAACqADibcQNjMnBhLnNpZ25hdHVyZQAAABAIY2JvctKEWQISogEmGCFZAgowggIGMIIBjaADAgECAhRA5aAK7sI50L64g/oGQgU9Z1UTADAKBggqhkjOPQQDAzBJMRcwFQYDVQQKEw5BbnRocm9waWMsIFBCQzEuMCwGA1UEAxMlQW50aHJvcGljIENvbnRlbnQgQ3JlZGVudGlhbHMgUm9vdCBDQTAeFw0yNjA4MDcxODQzNTZaFw0yODA4MDYxOTQzNTZaMEQxFzAVBgNVBAoTDkFudGhyb3BpYywgUEJDMSkwJwYDVQQDEyBBbnRocm9waWMgQ2xhdWRlIENvbnRlbnQgU2lnbmluZzBZMBMGByqGSM49AgEGCCqGSM49AwEHA0IABJh6CmvLUBgFFNU0vUKlOVtE6djd17L5SuwX0LemFisBM3dkd/3cyjxFA3Qo5S46fX0/ihY0VZ7mfb9KF703t5OjWDBWMA4GA1UdDwEB/wQEAwIHgDAVBgNVHSUEDjAMBgorBgEEAYPoXgIBMAwGA1UdEwEB/wQCMAAwHwYDVR0jBBgwFoAUzlHiBIFOZFsj+OPEz5o+nMHXXMIwCgYIKoZIzj0EAwMDZwAwZAIwMXMdFJ4BetLLVY7ORuE9noqbbAZOZn/aArXyTwFAZfKrPzxF2vPoJNf1+UCdg1XGAjBwX1zd9WGqYkqmL5SFqw1QySjr1zJfpJM9+1rdDwSPLMOPOjKuiXjoU/pUUeG9RwmhY3BhZFkNngAAAAAAAAAAAAAAAAAAAAAAAAAAAAAAAAAAAAAAAAAAAAAAAAAAAAAAAAAAAAAAAAAAAAAAAAAAAAAAAAAAAAAAAAAAAAAAAAAAAAAAAAAAAAAAAAAAAAAAAAAAAAAAAAAAAAAAAAAAAAAAAAAAAAAAAAAAAAAAAAAAAAAAAAAAAAAAAAAAAAAAAAAAAAAAAAAAAAAAAAAAAAAAAAAAAAAAAAAAAAAAAAAAAAAAAAAAAAAAAAAAAAAAAAAAAAAAAAAAAAAAAAAAAAAAAAAAAAAAAAAAAAAAAAAAAAAAAAAAAAAAAAAAAAAAAAAAAAAAAAAAAAAAAAAAAAAAAAAAAAAAAAAAAAAAAAAAAAAAAAAAAAAAAAAAAAAAAAAAAAAAAAAAAAAAAAAAAAAAAAAAAAAAAAAAAAAAAAAAAAAAAAAAAAAAAAAAAAAAAAAAAAAAAAAAAAAAAAAAAAAAAAAAAAAAAAAAAAAAAAAAAAAAAAAAAAAAAAAAAAAAAAAAAAAAAAAAAAAAAAAAAAAAAAAAAAAAAAAAAAAAAAAAAAAAAAAAAAAAAAAAAAAAAAAAAAAAAAAAAAAAAAAAAAAAAAAAAAAAAAAAAAAAAAAAAAAAAAAAAAAAAAAAAAAAAAAAAAAAAAAAAAAAAAAAAAAAAAAAAAAAAAAAAAAAAAAAAAAAAAAAAAAAAAAAAAAAAAAAAAAAAAAAAAAAAAAAAAAAAAAAAAAAAAAAAAAAAAAAAAAAAAAAAAAAAAAAAAAAAAAAAAAAAAAAAAAAAAAAAAAAAAAAAAAAAAAAAAAAAAAAAAAAAAAAAAAAAAAAAAAAAAAAAAAAAAAAAAAAAAAAAAAAAAAAAAAAAAAAAAAAAAAAAAAAAAAAAAAAAAAAAAAAAAAAAAAAAAAAAAAAAAAAAAAAAAAAAAAAAAAAAAAAAAAAAAAAAAAAAAAAAAAAAAAAAAAAAAAAAAAAAAAAAAAAAAAAAAAAAAAAAAAAAAAAAAAAAAAAAAAAAAAAAAAAAAAAAAAAAAAAAAAAAAAAAAAAAAAAAAAAAAAAAAAAAAAAAAAAAAAAAAAAAAAAAAAAAAAAAAAAAAAAAAAAAAAAAAAAAAAAAAAAAAAAAAAAAAAAAAAAAAAAAAAAAAAAAAAAAAAAAAAAAAAAAAAAAAAAAAAAAAAAAAAAAAAAAAAAAAAAAAAAAAAAAAAAAAAAAAAAAAAAAAAAAAAAAAAAAAAAAAAAAAAAAAAAAAAAAAAAAAAAAAAAAAAAAAAAAAAAAAAAAAAAAAAAAAAAAAAAAAAAAAAAAAAAAAAAAAAAAAAAAAAAAAAAAAAAAAAAAAAAAAAAAAAAAAAAAAAAAAAAAAAAAAAAAAAAAAAAAAAAAAAAAAAAAAAAAAAAAAAAAAAAAAAAAAAAAAAAAAAAAAAAAAAAAAAAAAAAAAAAAAAAAAAAAAAAAAAAAAAAAAAAAAAAAAAAAAAAAAAAAAAAAAAAAAAAAAAAAAAAAAAAAAAAAAAAAAAAAAAAAAAAAAAAAAAAAAAAAAAAAAAAAAAAAAAAAAAAAAAAAAAAAAAAAAAAAAAAAAAAAAAAAAAAAAAAAAAAAAAAAAAAAAAAAAAAAAAAAAAAAAAAAAAAAAAAAAAAAAAAAAAAAAAAAAAAAAAAAAAAAAAAAAAAAAAAAAAAAAAAAAAAAAAAAAAAAAAAAAAAAAAAAAAAAAAAAAAAAAAAAAAAAAAAAAAAAAAAAAAAAAAAAAAAAAAAAAAAAAAAAAAAAAAAAAAAAAAAAAAAAAAAAAAAAAAAAAAAAAAAAAAAAAAAAAAAAAAAAAAAAAAAAAAAAAAAAAAAAAAAAAAAAAAAAAAAAAAAAAAAAAAAAAAAAAAAAAAAAAAAAAAAAAAAAAAAAAAAAAAAAAAAAAAAAAAAAAAAAAAAAAAAAAAAAAAAAAAAAAAAAAAAAAAAAAAAAAAAAAAAAAAAAAAAAAAAAAAAAAAAAAAAAAAAAAAAAAAAAAAAAAAAAAAAAAAAAAAAAAAAAAAAAAAAAAAAAAAAAAAAAAAAAAAAAAAAAAAAAAAAAAAAAAAAAAAAAAAAAAAAAAAAAAAAAAAAAAAAAAAAAAAAAAAAAAAAAAAAAAAAAAAAAAAAAAAAAAAAAAAAAAAAAAAAAAAAAAAAAAAAAAAAAAAAAAAAAAAAAAAAAAAAAAAAAAAAAAAAAAAAAAAAAAAAAAAAAAAAAAAAAAAAAAAAAAAAAAAAAAAAAAAAAAAAAAAAAAAAAAAAAAAAAAAAAAAAAAAAAAAAAAAAAAAAAAAAAAAAAAAAAAAAAAAAAAAAAAAAAAAAAAAAAAAAAAAAAAAAAAAAAAAAAAAAAAAAAAAAAAAAAAAAAAAAAAAAAAAAAAAAAAAAAAAAAAAAAAAAAAAAAAAAAAAAAAAAAAAAAAAAAAAAAAAAAAAAAAAAAAAAAAAAAAAAAAAAAAAAAAAAAAAAAAAAAAAAAAAAAAAAAAAAAAAAAAAAAAAAAAAAAAAAAAAAAAAAAAAAAAAAAAAAAAAAAAAAAAAAAAAAAAAAAAAAAAAAAAAAAAAAAAAAAAAAAAAAAAAAAAAAAAAAAAAAAAAAAAAAAAAAAAAAAAAAAAAAAAAAAAAAAAAAAAAAAAAAAAAAAAAAAAAAAAAAAAAAAAAAAAAAAAAAAAAAAAAAAAAAAAAAAAAAAAAAAAAAAAAAAAAAAAAAAAAAAAAAAAAAAAAAAAAAAAAAAAAAAAAAAAAAAAAAAAAAAAAAAAAAAAAAAAAAAAAAAAAAAAAAAAAAAAAAAAAAAAAAAAAAAAAAAAAAAAAAAAAAAAAAAAAAAAAAAAAAAAAAAAAAAAAAAAAAAAAAAAAAAAAAAAAAAAAAAAAAAAAAAAAAAAAAAAAAAAAAAAAAAAAAAAAAAAAAAAAAAAAAAAAAAAAAAAAAAAAAAAAAAAAAAAAAAAAAAAAAAAAAAAAAAAAAAAAAAAAAAAAAAAAAAAAAAAAAAAAAAAAAAAAAAAAAAAAAAAAAAAAAAAAAAAAAAAAAAAAAAAAAAAAAAAAAAAAAAAAAAAAAAAAAAAAAAAAAAAAAAAAAAAAAAAAAAAAAAAAAAAAAAAAAAAAAAAAAAAAAAAAAAAAAAAAAAAAAAAAAAAAAAAAAAAAAAAAAAAAAAAAAAAAAAAAAAAAAAAAAAAAAAAAAAAAAAAAAAAAAAAAAAAAAAAAAAAAAAAAAAAAAAAAAAAAAAAAAAAAAAAAAAAAAAAAAAAAAAAAAAAAAAAAAAAAAAAAAAAAAAAAAAAAAAAAAAAAAAAAAAAAAAAAAAAAAAAAAAAAAAAAAAAAAAAAAAAAAAAAAAAAAAAAAAAAAAAAAAAAAAAAAAAAAAAAAAAAAAAAAAAAAAAAAAAAAAAAAAAAAAAAAAAAAAAAAAAAAAAAAAAAAAAAAAAAAAAAAAAAAAAAAAAAAAAAAAAAAAAAAAAAAAAAAAAAAAAAAAAAAAAAAAAAAAAAAAAAAAAAAAAAAAAAAAAAAAAAAAAAAAAAAAAAAAAAAAAAAAAAAAAAAAAAAAAAAAAAAAAAAAAAAAAAAAAAAAAAAAAAAAAAAAAAAAAAAAAAAAAAAAAAAAAAAAAAAAAAAAAAAAAAAAAAAAAAAAAAAAAAAAAAAAAAAAAAAAAAAAAAAAAAAAAAAAAAAAAAAAAAAAAAAAAAAAAAAAAAAAAAAAAAAAAAAAAAAAAAAAAAAAAAAAAAAAAAAAAAAAAAAAAAAAAAAAAAAAAAAAAAAAAAAAAAAAAAAAAAAAAAAAAAAAAAAAAAAAAAAAAAAAAAAAAAAAAAAAAAAAAAAAAAAAAAAAAAAAAAAAAAAAAAAAAAAAAAAAAAAAAAAAAAAAAAAAAAAAAAAAAAAAAAAAAAAAAAAAAAAAAAAAAAAAAAAAAAAAAAAAAAAAAAAAAAAAAAAAAAAAAAAAAAAAAAAAAAAAAAAAAAAAAAAAAAAAAAAAAAAAAAAAAAAAAAAAAAAAAAAAAAAAAAAAAAAAAAAAAAAAAAAAAAAAAAAAAAAAAAAAAAAAAAAAAAAAAAAAAAAAAAAAAAAAAAAAAAAAAAAAAAAAAAAAAAAAAAAAAAAAAAAAAAAAAAAAAAAAAAAAAAAAAAAAAAAAAAAAAAAAAAAAAAAAAAAAAAAAAAAAAAAAAAAAAAAAAAAAAAAAAAAAAAAAAAAAAAAAAAAAAAAAAAAAAAAAAAAAAAAAAAAAAAAAAAAAAAAAAAAAAAAAAAAAAAAAAAAAAAAAAAAAAAAAAAAAAAAAAAAAAAAAAAAAAAAAAAAAAAAAAAAAAAAAAAAAAAAAAAAAAAAAAAAAAAAAAAAAAAAAAAAAAAAAAAAAAAAAAAAAAAAAAAAAAAAAAAAAAAAAAAAAAAAAAAAAAAAAAAAAAAAAAAAAAAAAAAAAAAAAAAAAAAAAAAAAAAAAAAAAAAAAAAAAAAAAAAAAAAAAAAAAAAAAAAAAAAAAAAAAAAAAAAAAAAAAAAAAAAAAAAAAAAAAAAAAAAAAAAAAAAAAAAAAAAAAAAAAAAAAAAAAAAAAAAAAAAAAAAAAAAAAAAAAAAAAAAAAAAAAAAAAAAAAAAAAAAAAAAAAAAAAAAAAAAAAAAAAAAAAAAAAAAAAAAAAAAAAAAAAAAAAAAAAAAAAAAAAAAAAAAAAAAAAAAAAAAAAPZYQO/y38bQ7iTQjduKieTvjp9v6LnHhZZf2nMVd+G7lo7OZG0XhzfdS4WBt/0qoydb4vPwIE1cTc14tZBLBynAQHI=</c2pa:manifest></metadata><title>South Beach street at night with palm trees</title><defs><linearGradient id="sky" x1="0" y1="0" x2="0" y2="1"><stop offset="0" stop-color="#14103A"/><stop offset="1" stop-color="#3D2862"/></linearGradient><filter id="glow" x="-50%" y="-50%" width="200%" height="200%"><feGaussianBlur stdDeviation="14"/></filter><filter id="soft" x="-20%" y="-20%" width="140%" height="140%"><feGaussianBlur stdDeviation="4"/></filter></defs><rect width="1200" height="520" fill="url(#sky)"/><circle cx="457" cy="46" r="1" fill="#F3EEFF" opacity="0.75"/><circle cx="463" cy="179" r="1.5" fill="#F3EEFF" opacity="0.55"/><circle cx="460" cy="146" r="1" fill="#F3EEFF" opacity="0.68"/><circle cx="794" cy="168" r="2" fill="#F3EEFF" opacity="0.77"/><circle cx="1184" cy="196" r="1.5" fill="#F3EEFF" opacity="0.34"/><circle cx="786" cy="124" r="1" fill="#F3EEFF" opacity="0.32"/><circle cx="705" cy="87" r="1.5" fill="#F3EEFF" opacity="0.71"/><circle cx="259" cy="145" r="2" fill="#F3EEFF" opacity="0.32"/><circle cx="804" cy="25" r="1" fill="#F3EEFF" opacity="0.63"/><circle cx="1176" cy="11" r="1.5" fill="#F3EEFF" opacity="0.37"/><circle cx="31" cy="116" r="2" fill="#F3EEFF" opacity="0.74"/><circle cx="1016" cy="60" r="1" fill="#F3EEFF" opacity="0.31"/><circle cx="112" cy="4" r="2" fill="#F3EEFF" opacity="0.72"/><circle cx="276" cy="17" r="1" fill="#F3EEFF" opacity="0.50"/><circle cx="874" cy="85" r="1.5" fill="#F3EEFF" opacity="0.55"/><circle cx="1056" cy="131" r="1.5" fill="#F3EEFF" opacity="0.35"/><circle cx="969" cy="143" r="1" fill="#F3EEFF" opacity="0.79"/><circle cx="846" cy="179" r="2" fill="#F3EEFF" opacity="0.61"/><circle cx="900" cy="122" r="2" fill="#F3EEFF" opacity="0.58"/><circle cx="119" cy="189" r="1" fill="#F3EEFF" opacity="0.49"/><circle cx="880" cy="136" r="2" fill="#F3EEFF" opacity="0.68"/><circle cx="100" cy="134" r="1" fill="#F3EEFF" opacity="0.76"/><circle cx="299" cy="75" r="1.5" fill="#F3EEFF" opacity="0.69"/><circle cx="747" cy="158" r="1.5" fill="#F3EEFF" opacity="0.66"/><circle cx="878" cy="43" r="1" fill="#F3EEFF" opacity="0.37"/><circle cx="271" cy="94" r="1" fill="#F3EEFF" opacity="0.29"/><circle cx="285" cy="113" r="1" fill="#F3EEFF" opacity="0.52"/><circle cx="146" cy="77" r="1" fill="#F3EEFF" opacity="0.70"/><circle cx="537" cy="148" r="1" fill="#F3EEFF" opacity="0.55"/><circle cx="597" cy="194" r="1.5" fill="#F3EEFF" opacity="0.70"/><circle cx="36" cy="118" r="1" fill="#F3EEFF" opacity="0.60"/><circle cx="616" cy="130" r="1" fill="#F3EEFF" opacity="0.48"/><circle cx="1167" cy="192" r="1" fill="#F3EEFF" opacity="0.53"/><circle cx="714" cy="70" r="2" fill="#F3EEFF" opacity="0.76"/><circle cx="1087" cy="62" r="1" fill="#F3EEFF" opacity="0.39"/><circle cx="456" cy="46" r="1" fill="#F3EEFF" opacity="0.73"/><circle cx="335" cy="117" r="1.5" fill="#F3EEFF" opacity="0.47"/><circle cx="590" cy="170" r="1" fill="#F3EEFF" opacity="0.53"/><circle cx="713" cy="47" r="1" fill="#F3EEFF" opacity="0.75"/><circle cx="350" cy="49" r="2" fill="#F3EEFF" opacity="0.77"/><circle cx="991" cy="11" r="1" fill="#F3EEFF" opacity="0.67"/><circle cx="757" cy="83" r="2" fill="#F3EEFF" opacity="0.43"/><circle cx="440" cy="34" r="1" fill="#F3EEFF" opacity="0.37"/><circle cx="1047" cy="103" r="1" fill="#F3EEFF" opacity="0.26"/><circle cx="708" cy="75" r="1" fill="#F3EEFF" opacity="0.70"/><circle cx="325" cy="5" r="1" fill="#F3EEFF" opacity="0.46"/><circle cx="223" cy="105" r="1" fill="#F3EEFF" opacity="0.52"/><circle cx="681" cy="144" r="1" fill="#F3EEFF" opacity="0.45"/><circle cx="332" cy="17" r="2" fill="#F3EEFF" opacity="0.26"/><circle cx="372" cy="61" r="1" fill="#F3EEFF" opacity="0.55"/><rect x="20" y="164" width="176" height="236" fill="#2C1B4A"/><rect x="86.0" y="124" width="44" height="44" fill="#2C1B4A"/><rect x="96.0" y="94" width="24" height="34" fill="#2C1B4A"/><rect x="20" y="164" width="176" height="236" fill="none" stroke="#FF2E93" stroke-width="4"/><line x1="32" y1="194" x2="184" y2="194" stroke="#FF2E93" stroke-width="3"/><line x1="32" y1="204" x2="184" y2="204" stroke="#FF2E93" stroke-width="3"/><rect x="38" y="224" width="20" height="18" rx="3" fill="#FFC83D" opacity="0.50"/><rect x="74" y="224" width="20" height="18" rx="3" fill="#FFC83D" opacity="0.67"/><rect x="110" y="224" width="20" height="18" rx="3" fill="#FFC83D" opacity="0.30"/><rect x="146" y="224" width="20" height="18" rx="3" fill="#FFC83D" opacity="0.32"/><rect x="38" y="258" width="20" height="18" rx="3" fill="#FFC83D" opacity="0.22"/><rect x="74" y="258" width="20" height="18" rx="3" fill="#FFC83D" opacity="0.26"/><rect x="110" y="258" width="20" height="18" rx="3" fill="#FFC83D" opacity="0.20"/><rect x="146" y="258" width="20" height="18" rx="3" fill="#FFC83D" opacity="0.29"/><rect x="38" y="292" width="20" height="18" rx="3" fill="#FFC83D" opacity="0.48"/><rect x="74" y="292" width="20" height="18" rx="3" fill="#FFC83D" opacity="0.74"/><rect x="110" y="292" width="20" height="18" rx="3" fill="#FFC83D" opacity="0.58"/><rect x="146" y="292" width="20" height="18" rx="3" fill="#FFC83D" opacity="0.41"/><rect x="38" y="326" width="20" height="18" rx="3" fill="#FFC83D" opacity="0.42"/><rect x="74" y="326" width="20" height="18" rx="3" fill="#FFC83D" opacity="0.58"/><rect x="110" y="326" width="20" height="18" rx="3" fill="#FFC83D" opacity="0.38"/><rect x="146" y="326" width="20" height="18" rx="3" fill="#FFC83D" opacity="0.24"/><rect x="38" y="360" width="20" height="18" rx="3" fill="#FFC83D" opacity="0.66"/><rect x="74" y="360" width="20" height="18" rx="3" fill="#FFC83D" opacity="0.54"/><rect x="110" y="360" width="20" height="18" rx="3" fill="#FFC83D" opacity="0.26"/><rect x="146" y="360" width="20" height="18" rx="3" fill="#FFC83D" opacity="0.24"/><rect x="210" y="196" width="156" height="204" fill="#2C1B4A"/><rect x="266.0" y="156" width="44" height="44" fill="#2C1B4A"/><rect x="276.0" y="126" width="24" height="34" fill="#2C1B4A"/><rect x="210" y="196" width="156" height="204" fill="none" stroke="#2EC4B6" stroke-width="4"/><line x1="222" y1="226" x2="354" y2="226" stroke="#2EC4B6" stroke-width="3"/><line x1="222" y1="236" x2="354" y2="236" stroke="#2EC4B6" stroke-width="3"/><rect x="228" y="256" width="20" height="18" rx="3" fill="#FFC83D" opacity="0.73"/><rect x="264" y="256" width="20" height="18" rx="3" fill="#FFC83D" opacity="0.26"/><rect x="300" y="256" width="20" height="18" rx="3" fill="#FFC83D" opacity="0.54"/><rect x="336" y="256" width="20" height="18" rx="3" fill="#FFC83D" opacity="0.73"/><rect x="228" y="290" width="20" height="18" rx="3" fill="#FFC83D" opacity="0.22"/><rect x="264" y="290" width="20" height="18" rx="3" fill="#FFC83D" opacity="0.41"/><rect x="300" y="290" width="20" height="18" rx="3" fill="#FFC83D" opacity="0.46"/><rect x="336" y="290" width="20" height="18" rx="3" fill="#FFC83D" opacity="0.70"/><rect x="228" y="324" width="20" height="18" rx="3" fill="#FFC83D" opacity="0.30"/><rect x="264" y="324" width="20" height="18" rx="3" fill="#FFC83D" opacity="0.34"/><rect x="300" y="324" width="20" height="18" rx="3" fill="#FFC83D" opacity="0.34"/><rect x="336" y="324" width="20" height="18" rx="3" fill="#FFC83D" opacity="0.23"/><rect x="228" y="358" width="20" height="18" rx="3" fill="#FFC83D" opacity="0.57"/><rect x="264" y="358" width="20" height="18" rx="3" fill="#FFC83D" opacity="0.65"/><rect x="300" y="358" width="20" height="18" rx="3" fill="#FFC83D" opacity="0.44"/><rect x="336" y="358" width="20" height="18" rx="3" fill="#FFC83D" opacity="0.22"/><rect x="380" y="183" width="171" height="217" fill="#2C1B4A"/><rect x="443.5" y="143" width="44" height="44" fill="#2C1B4A"/><rect x="453.5" y="113" width="24" height="34" fill="#2C1B4A"/><rect x="380" y="183" width="171" height="217" fill="none" stroke="#FFC83D" stroke-width="4"/><line x1="392" y1="213" x2="539" y2="213" stroke="#FFC83D" stroke-width="3"/><line x1="392" y1="223" x2="539" y2="223" stroke="#FFC83D" stroke-width="3"/><rect x="398" y="243" width="20" height="18" rx="3" fill="#FFC83D" opacity="0.66"/><rect x="434" y="243" width="20" height="18" rx="3" fill="#FFC83D" opacity="0.55"/><rect x="470" y="243" width="20" height="18" rx="3" fill="#FFC83D" opacity="0.52"/><rect x="506" y="243" width="20" height="18" rx="3" fill="#FFC83D" opacity="0.50"/><rect x="398" y="277" width="20" height="18" rx="3" fill="#FFC83D" opacity="0.33"/><rect x="434" y="277" width="20" height="18" rx="3" fill="#FFC83D" opacity="0.45"/><rect x="470" y="277" width="20" height="18" rx="3" fill="#FFC83D" opacity="0.64"/><rect x="506" y="277" width="20" height="18" rx="3" fill="#FFC83D" opacity="0.58"/><rect x="398" y="311" width="20" height="18" rx="3" fill="#FFC83D" opacity="0.39"/><rect x="434" y="311" width="20" height="18" rx="3" fill="#FFC83D" opacity="0.65"/><rect x="470" y="311" width="20" height="18" rx="3" fill="#FFC83D" opacity="0.66"/><rect x="506" y="311" width="20" height="18" rx="3" fill="#FFC83D" opacity="0.22"/><rect x="398" y="345" width="20" height="18" rx="3" fill="#FFC83D" opacity="0.29"/><rect x="434" y="345" width="20" height="18" rx="3" fill="#FFC83D" opacity="0.32"/><rect x="470" y="345" width="20" height="18" rx="3" fill="#FFC83D" opacity="0.21"/><rect x="506" y="345" width="20" height="18" rx="3" fill="#FFC83D" opacity="0.61"/><rect x="398" y="379" width="20" height="18" rx="3" fill="#FFC83D" opacity="0.56"/><rect x="434" y="379" width="20" height="18" rx="3" fill="#FFC83D" opacity="0.50"/><rect x="470" y="379" width="20" height="18" rx="3" fill="#FFC83D" opacity="0.75"/><rect x="506" y="379" width="20" height="18" rx="3" fill="#FFC83D" opacity="0.40"/><rect x="565" y="179" width="162" height="221" fill="#2C1B4A"/><rect x="624.0" y="139" width="44" height="44" fill="#2C1B4A"/><rect x="634.0" y="109" width="24" height="34" fill="#2C1B4A"/><rect x="565" y="179" width="162" height="221" fill="none" stroke="#FF2E93" stroke-width="4"/><line x1="577" y1="209" x2="715" y2="209" stroke="#FF2E93" stroke-width="3"/><line x1="577" y1="219" x2="715" y2="219" stroke="#FF2E93" stroke-width="3"/><rect x="583" y="239" width="20" height="18" rx="3" fill="#FFC83D" opacity="0.26"/><rect x="619" y="239" width="20" height="18" rx="3" fill="#FFC83D" opacity="0.39"/><rect x="655" y="239" width="20" height="18" rx="3" fill="#FFC83D" opacity="0.66"/><rect x="691" y="239" width="20" height="18" rx="3" fill="#FFC83D" opacity="0.53"/><rect x="583" y="273" width="20" height="18" rx="3" fill="#FFC83D" opacity="0.23"/><rect x="619" y="273" width="20" height="18" rx="3" fill="#FFC83D" opacity="0.44"/><rect x="655" y="273" width="20" height="18" rx="3" fill="#FFC83D" opacity="0.23"/><rect x="691" y="273" width="20" height="18" rx="3" fill="#FFC83D" opacity="0.54"/><rect x="583" y="307" width="20" height="18" rx="3" fill="#FFC83D" opacity="0.27"/><rect x="619" y="307" width="20" height="18" rx="3" fill="#FFC83D" opacity="0.30"/><rect x="655" y="307" width="20" height="18" rx="3" fill="#FFC83D" opacity="0.55"/><rect x="691" y="307" width="20" height="18" rx="3" fill="#FFC83D" opacity="0.66"/><rect x="583" y="341" width="20" height="18" rx="3" fill="#FFC83D" opacity="0.54"/><rect x="619" y="341" width="20" height="18" rx="3" fill="#FFC83D" opacity="0.36"/><rect x="655" y="341" width="20" height="18" rx="3" fill="#FFC83D" opacity="0.55"/><rect x="691" y="341" width="20" height="18" rx="3" fill="#FFC83D" opacity="0.35"/><rect x="583" y="375" width="20" height="18" rx="3" fill="#FFC83D" opacity="0.20"/><rect x="619" y="375" width="20" height="18" rx="3" fill="#FFC83D" opacity="0.35"/><rect x="655" y="375" width="20" height="18" rx="3" fill="#FFC83D" opacity="0.58"/><rect x="691" y="375" width="20" height="18" rx="3" fill="#FFC83D" opacity="0.54"/><rect x="741" y="223" width="162" height="177" fill="#2C1B4A"/><rect x="800.0" y="183" width="44" height="44" fill="#2C1B4A"/><rect x="810.0" y="153" width="24" height="34" fill="#2C1B4A"/><rect x="741" y="223" width="162" height="177" fill="none" stroke="#2EC4B6" stroke-width="4"/><line x1="753" y1="253" x2="891" y2="253" stroke="#2EC4B6" stroke-width="3"/><line x1="753" y1="263" x2="891" y2="263" stroke="#2EC4B6" stroke-width="3"/><rect x="759" y="283" width="20" height="18" rx="3" fill="#FFC83D" opacity="0.35"/><rect x="795" y="283" width="20" height="18" rx="3" fill="#FFC83D" opacity="0.73"/><rect x="831" y="283" width="20" height="18" rx="3" fill="#FFC83D" opacity="0.34"/><rect x="867" y="283" width="20" height="18" rx="3" fill="#FFC83D" opacity="0.24"/><rect x="759" y="317" width="20" height="18" rx="3" fill="#FFC83D" opacity="0.48"/><rect x="795" y="317" width="20" height="18" rx="3" fill="#FFC83D" opacity="0.68"/><rect x="831" y="317" width="20" height="18" rx="3" fill="#FFC83D" opacity="0.53"/><rect x="867" y="317" width="20" height="18" rx="3" fill="#FFC83D" opacity="0.50"/><rect x="759" y="351" width="20" height="18" rx="3" fill="#FFC83D" opacity="0.47"/><rect x="795" y="351" width="20" height="18" rx="3" fill="#FFC83D" opacity="0.36"/><rect x="831" y="351" width="20" height="18" rx="3" fill="#FFC83D" opacity="0.36"/><rect x="867" y="351" width="20" height="18" rx="3" fill="#FFC83D" opacity="0.42"/><rect x="917" y="173" width="185" height="227" fill="#2C1B4A"/><rect x="987.5" y="133" width="44" height="44" fill="#2C1B4A"/><rect x="997.5" y="103" width="24" height="34" fill="#2C1B4A"/><rect x="917" y="173" width="185" height="227" fill="none" stroke="#FFC83D" stroke-width="4"/><line x1="929" y1="203" x2="1090" y2="203" stroke="#FFC83D" stroke-width="3"/><line x1="929" y1="213" x2="1090" y2="213" stroke="#FFC83D" stroke-width="3"/><rect x="935" y="233" width="20" height="18" rx="3" fill="#FFC83D" opacity="0.24"/><rect x="971" y="233" width="20" height="18" rx="3" fill="#FFC83D" opacity="0.34"/><rect x="1007" y="233" width="20" height="18" rx="3" fill="#FFC83D" opacity="0.72"/><rect x="1043" y="233" width="20" height="18" rx="3" fill="#FFC83D" opacity="0.56"/><rect x="935" y="267" width="20" height="18" rx="3" fill="#FFC83D" opacity="0.24"/><rect x="971" y="267" width="20" height="18" rx="3" fill="#FFC83D" opacity="0.44"/><rect x="1007" y="267" width="20" height="18" rx="3" fill="#FFC83D" opacity="0.56"/><rect x="1043" y="267" width="20" height="18" rx="3" fill="#FFC83D" opacity="0.70"/><rect x="935" y="301" width="20" height="18" rx="3" fill="#FFC83D" opacity="0.25"/><rect x="971" y="301" width="20" height="18" rx="3" fill="#FFC83D" opacity="0.70"/><rect x="1007" y="301" width="20" height="18" rx="3" fill="#FFC83D" opacity="0.62"/><rect x="1043" y="301" width="20" height="18" rx="3" fill="#FFC83D" opacity="0.35"/><rect x="935" y="335" width="20" height="18" rx="3" fill="#FFC83D" opacity="0.49"/><rect x="971" y="335" width="20" height="18" rx="3" fill="#FFC83D" opacity="0.65"/><rect x="1007" y="335" width="20" height="18" rx="3" fill="#FFC83D" opacity="0.33"/><rect x="1043" y="335" width="20" height="18" rx="3" fill="#FFC83D" opacity="0.59"/><rect x="935" y="369" width="20" height="18" rx="3" fill="#FFC83D" opacity="0.51"/><rect x="971" y="369" width="20" height="18" rx="3" fill="#FFC83D" opacity="0.24"/><rect x="1007" y="369" width="20" height="18" rx="3" fill="#FFC83D" opacity="0.35"/><rect x="1043" y="369" width="20" height="18" rx="3" fill="#FFC83D" opacity="0.43"/><rect y="400" width="1200" height="120" fill="#1E1234"/><rect x="-20" y="455" width="60" height="6" rx="3" fill="#FFC83D" opacity=".6"/><rect x="100" y="455" width="60" height="6" rx="3" fill="#FFC83D" opacity=".6"/><rect x="220" y="455" width="60" height="6" rx="3" fill="#FFC83D" opacity=".6"/><rect x="340" y="455" width="60" height="6" rx="3" fill="#FFC83D" opacity=".6"/><rect x="460" y="455" width="60" height="6" rx="3" fill="#FFC83D" opacity=".6"/><rect x="580" y="455" width="60" height="6" rx="3" fill="#FFC83D" opacity=".6"/><rect x="700" y="455" width="60" height="6" rx="3" fill="#FFC83D" opacity=".6"/><rect x="820" y="455" width="60" height="6" rx="3" fill="#FFC83D" opacity=".6"/><rect x="940" y="455" width="60" height="6" rx="3" fill="#FFC83D" opacity=".6"/><rect x="1060" y="455" width="60" height="6" rx="3" fill="#FFC83D" opacity=".6"/><rect x="1180" y="455" width="60" height="6" rx="3" fill="#FFC83D" opacity=".6"/><path d="M110 410 Q117.5 275.0 135 140" stroke="#120A20" stroke-width="14" fill="none" stroke-linecap="round"/><path d="M135 140 Q79 97 22 157" stroke="#120A20" stroke-width="16" fill="none" stroke-linecap="round"/><path d="M135 140 Q92 66 48 123" stroke="#120A20" stroke-width="16" fill="none" stroke-linecap="round"/><path d="M135 140 Q131 73 127 131" stroke="#120A20" stroke-width="16" fill="none" stroke-linecap="round"/><path d="M135 140 Q169 60 202 116" stroke="#120A20" stroke-width="16" fill="none" stroke-linecap="round"/><path d="M135 140 Q189 93 244 152" stroke="#120A20" stroke-width="16" fill="none" stroke-linecap="round"/><path d="M135 140 Q182 126 229 189" stroke="#120A20" stroke-width="16" fill="none" stroke-linecap="round"/><path d="M135 140 Q88 126 41 189" stroke="#120A20" stroke-width="16" fill="none" stroke-linecap="round"/><path d="M640 410 Q631.0 260.0 610 110" stroke="#120A20" stroke-width="14" fill="none" stroke-linecap="round"/><path d="M610 110 Q554 67 497 127" stroke="#120A20" stroke-width="16" fill="none" stroke-linecap="round"/><path d="M610 110 Q567 36 523 93" stroke="#120A20" stroke-width="16" fill="none" stroke-linecap="round"/><path d="M610 110 Q606 43 602 101" stroke="#120A20" stroke-width="16" fill="none" stroke-linecap="round"/><path d="M610 110 Q644 30 678 86" stroke="#120A20" stroke-width="16" fill="none" stroke-linecap="round"/><path d="M610 110 Q664 63 719 122" stroke="#120A20" stroke-width="16" fill="none" stroke-linecap="round"/><path d="M610 110 Q657 96 704 159" stroke="#120A20" stroke-width="16" fill="none" stroke-linecap="round"/><path d="M610 110 Q563 96 516 159" stroke="#120A20" stroke-width="16" fill="none" stroke-linecap="round"/><path d="M1130 410 Q1124.0 280.0 1110 150" stroke="#120A20" stroke-width="14" fill="none" stroke-linecap="round"/><path d="M1110 150 Q1054 107 997 167" stroke="#120A20" stroke-width="16" fill="none" stroke-linecap="round"/><path d="M1110 150 Q1067 76 1023 133" stroke="#120A20" stroke-width="16" fill="none" stroke-linecap="round"/><path d="M1110 150 Q1106 83 1102 141" stroke="#120A20" stroke-width="16" fill="none" stroke-linecap="round"/><path d="M1110 150 Q1144 70 1178 126" stroke="#120A20" stroke-width="16" fill="none" stroke-linecap="round"/><path d="M1110 150 Q1164 103 1219 162" stroke="#120A20" stroke-width="16" fill="none" stroke-linecap="round"/><path d="M1110 150 Q1157 136 1204 199" stroke="#120A20" stroke-width="16" fill="none" stroke-linecap="round"/><path d="M1110 150 Q1063 136 1016 199" stroke="#120A20" stroke-width="16" fill="none" stroke-linecap="round"/></svg>
